<svg xmlns="http://www.w3.org/2000/svg" viewBox="0 0 1600 880" width="1600" height="880">
<rect width="1600" height="880" fill="#0d1117"/>
<text x="64.0" y="76.0" font-size="40" fill="#e6edf3" text-anchor="start" font-family="system-ui,-apple-system,Segoe UI,Helvetica,Arial,sans-serif" font-weight="600">when it cannot answer, it says which coordinate to go and look at</text>
<text x="64.0" y="120.0" font-size="28" fill="#8b949e" text-anchor="start" font-family="ui-monospace,SFMono-Regular,Menlo,Consolas,monospace" font-weight="400">Floor_plans_of_Buda_Castle_he.svg, 106 segments</text>
<line x1="64.0" y1="152.0" x2="1536.0" y2="152.0" stroke="#30363d" stroke-width="2" stroke-linecap="round"/>
<path d="M72.0 281.0L72.0 379.2M72.0 379.2L165.6 379.2M165.6 379.2L165.6 311.2M165.6 311.2L191.4 311.2M191.4 311.2L191.4 281.0M191.4 281.0L165.6 281.0M165.6 281.0L163.1 281.0M163.1 281.0L72.0 281.0M229.6 238.6L229.6 245.3M229.6 245.3L191.4 245.3M191.4 245.3L191.4 311.2M191.4 311.2L205.6 311.2M205.6 311.2L205.6 326.4M205.6 326.4L295.2 326.4M295.2 326.4L295.2 311.2M295.2 311.2L308.5 311.2M308.5 311.2L316.6 311.2M316.6 311.2L336.8 311.2M336.8 311.2L336.8 274.9M336.8 274.9L316.6 274.9M316.6 274.9L316.6 245.3M316.6 245.3L279.0 245.3M279.0 245.3L279.0 238.6M279.0 238.6L229.6 238.6M583.6 282.8L583.6 310.8M583.6 310.8L605.5 310.8M605.5 310.8L605.5 378.5M605.5 378.5L702.0 378.5M702.0 378.5L702.0 310.8M702.0 310.8L702.0 299.7M702.0 299.7L702.0 282.8M702.0 282.8L583.6 282.8M369.0 265.6L369.0 271.2M369.0 271.2L364.6 271.2M364.6 271.2L364.6 274.9M364.6 274.9L336.8 274.9M336.8 274.9L336.8 378.6M336.8 378.6L408.1 378.6M408.1 378.6L417.7 378.6M417.7 378.6L436.5 378.6M436.5 378.6L436.5 274.9M436.5 274.9L417.7 274.9M417.7 274.9L410.1 274.9M410.1 274.9L410.1 271.2M410.1 271.2L405.8 271.2M405.8 271.2L405.8 265.6M405.8 265.6L369.0 265.6M496.4 238.6L496.4 245.3M496.4 245.3L458.3 245.3M458.3 245.3L458.3 274.9M458.3 274.9L436.5 274.9M436.5 274.9L436.5 311.2M436.5 311.2L464.9 311.2M464.9 311.2L479.4 311.2M479.4 311.2L479.4 320.7M479.4 320.7L505.0 320.7M505.0 320.7L505.0 323.8M505.0 323.8L538.3 323.8M538.3 323.8L538.3 320.7M538.3 320.7L563.8 320.7M563.8 320.7L563.8 311.2M563.8 311.2L575.5 311.2M575.5 311.2L583.6 311.2M583.6 311.2L583.6 274.9M583.6 274.9L583.6 245.3M583.6 245.3L545.7 245.3M545.7 245.3L545.7 238.6M545.7 238.6L496.4 238.6M408.1 378.6L408.1 414.6M408.1 414.6L405.5 414.6M405.5 414.6L405.5 528.9M405.5 528.9L408.1 528.9M408.1 528.9L433.9 528.9M433.9 528.9L436.4 528.9M436.4 528.9L436.4 524.9M436.4 524.9L485.6 524.9M485.6 524.9L485.6 528.1M485.6 528.1L497.2 528.1M497.2 528.1L497.2 533.4M497.2 533.4L544.4 533.4M544.4 533.4L544.4 528.1M544.4 528.1L556.0 528.1M556.0 528.1L556.0 524.9M556.0 524.9L605.6 524.9M605.6 524.9L605.6 528.9M605.6 528.9L636.5 528.9M636.5 528.9L636.5 414.6M636.5 414.6L633.9 414.6M633.9 414.6L633.9 378.6M633.9 378.6L608.1 378.6M608.1 378.6L608.1 414.6M608.1 414.6L605.6 414.6M605.6 414.6L605.6 438.5M605.6 438.5L556.2 438.5M556.2 438.5L556.2 428.4M556.2 428.4L536.4 428.4M536.4 428.4L536.4 417.1M536.4 417.1L505.2 417.1M505.2 417.1L505.2 428.4M505.2 428.4L485.4 428.4M485.4 428.4L485.4 438.5M485.4 438.5L436.4 438.5M436.4 438.5L436.4 414.6M436.4 414.6L433.9 414.6M433.9 414.6L433.9 378.6M433.9 378.6L408.1 378.6" fill="none" stroke="#e6edf3" stroke-width="3" stroke-linecap="round"/>
<line x1="583.6" y1="282.8" x2="800.0" y2="268.0" stroke="#f85149" stroke-width="2" stroke-linecap="round" stroke-dasharray="6 8"/>
<circle cx="583.6" cy="282.8" r="26.0" fill="none" stroke="#f85149" stroke-width="4"/>
<circle cx="800.0" cy="268.0" r="96.0" fill="#0d1117" stroke="#f85149" stroke-width="3"/>
<line x1="726.0" y1="298.0" x2="874.0" y2="298.0" stroke="#e6edf3" stroke-width="7" stroke-linecap="round"/>
<line x1="792.0" y1="210.0" x2="792.0" y2="288.0" stroke="#e6edf3" stroke-width="7" stroke-linecap="round"/>
<line x1="756.0" y1="288.0" x2="834.0" y2="288.0" stroke="#f85149" stroke-width="3" stroke-linecap="round" stroke-dasharray="4 5"/>
<text x="800.0" y="406.0" font-size="30" fill="#f85149" text-anchor="middle" font-family="ui-monospace,SFMono-Regular,Menlo,Consolas,monospace" font-weight="600">d = 7.1e-15</text>
<rect x="920.0" y="186.0" width="616.0" height="78.0" fill="#161b22" stroke="#f85149" stroke-width="2" rx="6"/>
<text x="946.0" y="238.0" font-size="40" fill="#f85149" text-anchor="start" font-family="ui-monospace,SFMono-Regular,Menlo,Consolas,monospace" font-weight="700">REFUSED</text>
<text x="1152.0" y="238.0" font-size="32" fill="#f85149" text-anchor="start" font-family="ui-monospace,SFMono-Regular,Menlo,Consolas,monospace" font-weight="400">VERTEX_NEAR_EDGE</text>
<text x="920.0" y="318.0" font-size="28" fill="#8b949e" text-anchor="start" font-family="ui-monospace,SFMono-Regular,Menlo,Consolas,monospace" font-weight="400">look at</text>
<text x="1092.0" y="318.0" font-size="28" fill="#e6edf3" text-anchor="start" font-family="ui-monospace,SFMono-Regular,Menlo,Consolas,monospace" font-weight="400">(537.5, 54.4299)</text>
<text x="920.0" y="360.0" font-size="28" fill="#8b949e" text-anchor="start" font-family="ui-monospace,SFMono-Regular,Menlo,Consolas,monospace" font-weight="400">element</text>
<text x="1092.0" y="360.0" font-size="28" fill="#e6edf3" text-anchor="start" font-family="ui-monospace,SFMono-Regular,Menlo,Consolas,monospace" font-weight="400">path#rect5095</text>
<text x="920.0" y="402.0" font-size="28" fill="#8b949e" text-anchor="start" font-family="ui-monospace,SFMono-Regular,Menlo,Consolas,monospace" font-weight="400">on edge</text>
<text x="1092.0" y="402.0" font-size="28" fill="#e6edf3" text-anchor="start" font-family="ui-monospace,SFMono-Regular,Menlo,Consolas,monospace" font-weight="400">path#rect5109</text>
<text x="920.0" y="444.0" font-size="28" fill="#8b949e" text-anchor="start" font-family="ui-monospace,SFMono-Regular,Menlo,Consolas,monospace" font-weight="400">distance</text>
<text x="1092.0" y="444.0" font-size="28" fill="#e6edf3" text-anchor="start" font-family="ui-monospace,SFMono-Regular,Menlo,Consolas,monospace" font-weight="400">7.1e-15</text>
<text x="920.0" y="486.0" font-size="28" fill="#8b949e" text-anchor="start" font-family="ui-monospace,SFMono-Regular,Menlo,Consolas,monospace" font-weight="400">band</text>
<text x="1092.0" y="486.0" font-size="28" fill="#e6edf3" text-anchor="start" font-family="ui-monospace,SFMono-Regular,Menlo,Consolas,monospace" font-weight="400">(0, 0.00538)</text>
<text x="920.0" y="528.0" font-size="28" fill="#8b949e" text-anchor="start" font-family="ui-monospace,SFMono-Regular,Menlo,Consolas,monospace" font-weight="400">action</text>
<text x="1092.0" y="528.0" font-size="28" fill="#e6edf3" text-anchor="start" font-family="ui-monospace,SFMono-Regular,Menlo,Consolas,monospace" font-weight="400">move this end onto the wall,</text>
<text x="1092.0" y="570.0" font-size="28" fill="#e6edf3" text-anchor="start" font-family="ui-monospace,SFMono-Regular,Menlo,Consolas,monospace" font-weight="400">or away from it by more than</text>
<text x="1092.0" y="612.0" font-size="28" fill="#e6edf3" text-anchor="start" font-family="ui-monospace,SFMono-Regular,Menlo,Consolas,monospace" font-weight="400">0.00538</text>
<text x="72.0" y="668.0" font-size="28" fill="#8b949e" text-anchor="start" font-family="system-ui,-apple-system,Segoe UI,Helvetica,Arial,sans-serif" font-weight="400">not zero, so it cannot subdivide the wall. not outside the band, so it cannot be a separate</text>
<text x="72.0" y="706.0" font-size="28" fill="#8b949e" text-anchor="start" font-family="system-ui,-apple-system,Segoe UI,Helvetica,Arial,sans-serif" font-weight="400">vertex either. no snap radius makes this drawing unambiguous, so there is no integer to give.</text>
<line x1="64.0" y1="744.0" x2="1536.0" y2="744.0" stroke="#30363d" stroke-width="2" stroke-linecap="round"/>
<text x="72.0" y="784.0" font-size="27" fill="#8b949e" text-anchor="start" font-family="ui-monospace,SFMono-Regular,Menlo,Consolas,monospace" font-weight="400">96 Wikimedia Commons floor plans at the default ceiling, 0 answered</text>
<rect x="72.0" y="800.0" width="1336.0" height="32.0" fill="#d29922" stroke="none" stroke-width="0" rx="4" fill-opacity="0.85"/>
<text x="74.0" y="862.0" font-size="26" fill="#d29922" text-anchor="start" font-family="ui-monospace,SFMono-Regular,Menlo,Consolas,monospace" font-weight="400">88 out of room on this machine</text>
<rect x="1414.0" y="800.0" width="116.0" height="32.0" fill="#f85149" stroke="none" stroke-width="0" rx="4" fill-opacity="0.85"/>
<text x="1530.0" y="862.0" font-size="26" fill="#f85149" text-anchor="end" font-family="ui-monospace,SFMono-Regular,Menlo,Consolas,monospace" font-weight="400">8 go and look</text>
</svg>
